<?xml version="1.0" standalone="no"?>
<!DOCTYPE svg PUBLIC "-//W3C//DTD SVG 20010904//EN"
 "http://www.w3.org/TR/2001/REC-SVG-20010904/DTD/svg10.dtd">
<svg version="1.0" xmlns="http://www.w3.org/2000/svg"
 width="208.000000pt" height="208.000000pt" viewBox="0 0 208.000000 208.000000"
 preserveAspectRatio="xMidYMid meet">
<metadata>
Created by potrace 1.14, written by Peter Selinger 2001-2017
</metadata>
<g transform="translate(0.000000,208.000000) scale(0.100000,-0.100000)"
fill="#000000" stroke="none">
<path d="M1444 1923 c4 -29 16 -87 27 -130 l20 -78 -43 -38 c-24 -21 -55 -47
-70 -58 l-26 -19 -48 81 c-26 44 -53 83 -60 86 -7 3 -52 -28 -98 -68 -78 -66
-87 -77 -101 -128 -40 -138 -30 -124 -113 -161 -43 -19 -80 -38 -83 -43 -3 -5
-9 -8 -13 -8 -19 3 -24 -1 -29 -19 -4 -16 -14 -20 -44 -20 -21 0 -55 -4 -76
-9 l-39 -9 -40 88 -41 89 -62 27 c-35 14 -68 23 -74 20 -14 -9 -6 -68 21 -161
22 -75 59 -156 112 -238 86 -134 122 -229 140 -372 15 -108 22 -129 55 -159
28 -25 27 -14 -4 32 -19 28 -27 59 -34 127 -15 141 -47 226 -141 380 -77 126
-120 230 -135 334 -7 41 -6 43 16 36 83 -27 89 -33 136 -132 24 -52 43 -105
42 -117 -3 -38 3 -42 10 -6 6 32 9 35 59 46 48 11 89 8 134 -11 11 -4 19 -24
24 -61 4 -36 16 -68 35 -93 24 -34 27 -44 19 -72 -14 -46 -5 -48 10 -2 7 21
16 40 20 43 4 3 29 43 57 90 l50 85 96 10 c65 7 98 7 101 0 3 -5 5 -2 5 9 3
57 132 216 176 216 41 0 56 22 68 102 9 67 8 86 -11 169 -37 155 -37 149 -7
114 39 -46 81 -123 106 -195 17 -50 22 -89 23 -165 0 -130 -17 -186 -105 -348
-39 -70 -69 -133 -67 -139 5 -15 141 228 162 290 21 58 36 185 29 247 -12 118
-99 304 -174 370 l-22 20 7 -52z m-151 -258 c27 -47 52 -85 57 -85 5 0 36 23
69 50 33 28 63 50 67 50 7 0 -2 -107 -11 -132 -4 -9 -20 -19 -37 -22 -49 -10
-96 -52 -150 -135 -27 -42 -57 -79 -66 -83 -9 -4 -40 -7 -68 -7 -100 -2 -105
-5 -157 -97 -27 -46 -54 -84 -60 -84 -21 1 -45 45 -56 106 -10 53 -25 77 -54
87 -26 8 8 36 89 71 49 21 94 42 100 47 6 5 22 48 34 95 l23 86 79 69 c43 38
81 69 86 69 4 0 29 -38 55 -85z"/>
<path d="M1330 666 c0 -22 -50 -76 -70 -76 -10 0 -22 -4 -25 -10 -10 -16 38
-11 64 6 13 9 29 32 37 50 17 40 17 44 4 44 -5 0 -10 -6 -10 -14z"/>
<path d="M925 570 c-4 -6 32 -10 99 -10 64 0 106 4 106 10 0 6 -40 10 -99 10
-56 0 -103 -4 -106 -10z"/>
<path d="M1140 570 c0 -5 5 -10 10 -10 6 0 10 5 10 10 0 6 -4 10 -10 10 -5 0
-10 -4 -10 -10z"/>
<path d="M838 533 c-23 -6 -33 -45 -19 -72 9 -15 8 -26 -1 -40 -9 -15 -9 -25
0 -45 9 -20 9 -32 0 -51 -8 -19 -8 -31 0 -50 l12 -25 214 0 c182 0 217 2 230
16 18 18 21 55 5 71 -8 8 -7 17 2 32 11 16 11 27 2 51 -7 17 -7 32 -2 36 17
10 9 53 -13 68 -19 13 -56 16 -218 15 -107 -1 -203 -3 -212 -6z m412 -41 c0
-15 -2 -15 -10 -2 -13 20 -13 33 0 25 6 -3 10 -14 10 -23z m-35 -26 c16 -12
17 -16 6 -30 -19 -23 -302 -24 -321 -1 -10 12 -10 18 0 30 17 21 287 22 315 1z
m-60 -121 c0 -19 -8 -20 -124 -23 -126 -3 -149 3 -138 33 6 13 25 15 134 13
120 -3 128 -4 128 -23z m90 -64 c-3 -6 -11 -11 -17 -11 -6 0 -6 6 2 15 14 17
26 13 15 -4z"/>
<path d="M910 227 c0 -16 35 -49 69 -67 41 -21 115 -15 164 14 43 25 62 48 50
60 -4 3 -69 6 -145 6 -108 0 -138 -3 -138 -13z m240 -23 c0 -5 -63 -34 -75
-34 -3 0 -5 4 -5 9 0 4 15 13 33 19 40 12 47 13 47 6z"/>
</g>
</svg>
